<?xml version="1.0" encoding="UTF-8"?>
<svg id="Layer_1" xmlns="http://www.w3.org/2000/svg" version="1.1" viewBox="0 0 843.55 855.81">
  <!-- Generator: Adobe Illustrator 29.5.0, SVG Export Plug-In . SVG Version: 2.1.0 Build 137)  -->
  <defs>
    <style>
      .st0 {
        fill: #1b1464;
      }

      .st1 {
        fill: #00a99d;
      }
    </style>
  </defs>
  <path class="st1" d="M772.22,272.84c-7.19-25.76-30-48.32-53.13-61.27-36.71-20.54-73.77-41.21-111.17-62.01-6.73-3.73-14.88-8.35-24.45-13.82-29.63-16.95-59.17-32.89-88.19-49.97-10.39-6.11-18.66-10.39-24.81-12.81-33.9-13.37-67.5-12.8-100.8,1.72-4.98,2.17-13.22,6.53-24.73,13.08-32.14,18.28-64.4,36.49-96.79,54.61-67.14,37.38-109.78,61.32-127.93,71.84-15.2,8.81-28.15,21.4-38.85,37.76-12.01,18.29-18.29,37.33-18.84,57.09-.41,14.92-.49,49.25-.25,103.03l-.08,61.58c-.03,36.71.03,73.57.17,110.59.04,11.19,1.76,22.17,5.16,32.93,5.54,17.54,19.54,34.33,39.95,31.94,17.08-2,28.85-15.68,27.19-33.05-.5-5.3-4.35-12.78-6.15-17.37-2.24-5.66-3.4-12.92-3.47-21.8-.24-27.51-.35-54.97-.35-82.4l.04-56.4c.1-58.9.08-95.96-.01-111.18-.14-20.52,6.71-38.14,20.57-52.83,5.08-5.06,10.85-9.37,17.31-12.94,56.07-30.98,112-62.08,167.85-93.32,14.98-8.42,29.91-16.85,44.82-25.28,11.13-6.31,19.51-10.32,25.14-12.04,15.98-4.87,31.7-4.24,47.16,1.87,3.29,1.3,11.54,5.65,24.73,13.02,31.33,17.54,62.51,34.85,93.57,51.93,1.09.6,1.64,1.54,1.64,2.78v211.58s-.08,110.98-.08,110.98l.03,123.84c0,.28.31.46.55.32,21.48-12.01,42.88-24.25,64.19-36.71,7.16-4.18,10.74-10.06,10.75-17.61.04-19.55.04-39.12-.01-58.68l.07-110.45-.15-181.64c0-.39.42-.64.77-.46,13.57,7.12,27.63,14.78,42.19,22.99,7.09,4.01,12.03,7.29,14.81,9.82,5.66,5.16,9.51,9.8,11.54,13.93,6.06,12.36,10.06,20.73,22.84,23.89,24.95,6.18,44.02-14.71,37.21-39.07Z"/>
  <path class="st1" d="M276.17,461.52c-.01-4.46-1.82-7.5-5.38-9.12-1.75-.8-4.89-1.22-9.41-1.24-7.17-.04-22.12-.06-44.85-.03-4.1,0-6.67.2-7.69.57-5.19,1.92-7.79,5.3-7.82,10.18-.1,18.19-.1,36.39-.01,54.6-.11,25.27-.07,50.54.13,75.8.06,8.04,3.38,13.94,9.99,17.7,21.52,12.26,43.05,24.38,64.57,36.33.28.15.63-.06.63-.38l-.08-117.29c.08-22.4.07-44.78-.06-67.13Z"/>
  <path class="st1" d="M520.51,494.11c.04-59.34.13-118.68.28-178.01.01-4.66-.5-7.9-1.54-9.71-2.42-4.24-6.38-6.38-11.86-6.41-14.5-.1-29-.17-43.53-.2-4.48-.01-7.59.27-9.36.84-8.68,2.82-7.65,10.46-7.65,19.58-.01,56.29-.03,112.59-.01,168.9l-.1,148.28-.13,77.07c0,.39.42.64.76.45,27.63-15.93,48.05-27.55,61.27-34.86,6.38-3.52,10.89-7.4,11.8-14.29.48-3.62.62-9.43.41-17.44l-.34-154.2Z"/>
  <path class="st1" d="M398.06,493.81c.11-30.81.13-61.52.03-92.13-.04-11.48-4.73-13.94-15.5-14.01-1.71-.01-17.09.03-46.15.1-5.55.01-9.3,2.13-11.24,6.31-.94,2.04-1.43,5.83-1.44,11.37-.07,29.66-.1,59.34-.11,89.01v81.13c-.14,28.19-.18,56.39-.08,84.59.03,8.11,1.8,14.31,8.75,18.18,21.96,12.24,43.52,24.6,64.71,37.12.57.34,1.29-.08,1.29-.74l-.13-130.88-.13-90.03Z"/>
  <path class="st0" d="M781.37,379.75c-.03-14-5.58-24.01-16.66-30.03-16.4-8.89-37.56-2.32-44.02,15.15-1.41,3.8-2.13,10.08-2.14,18.82-.11,52.93-.11,115.01-.01,186.22.01,11.99-2.29,23.37-6.94,34.12-6.8,13.24-16.94,23.66-30.43,31.26-19.4,10.91-38.84,21.83-58.3,32.78l-122.33,69.63c-8.77,4.88-17.55,9.85-26.36,14.87-11.76,6.7-20.04,10.94-24.87,12.71-22.89,8.41-45.65,6.24-68.27-6.49-13.69-7.71-27.33-15.45-40.89-23.24-44.26-24.99-88.45-50.08-132.56-75.25-5.73-3.26-11.52-6.43-17.38-9.5-13.8-7.23-32.71-.94-40.32,12.47-6.13,10.78-5.68,22.07,1.33,33.86,2.31,3.9,4.87,6.6,7.66,8.08,9.62,5.13,19.16,10.38,28.61,15.73,49.52,28,99.03,55.95,148.55,83.88,2.89,1.64,7.79,4.5,14.66,8.61,36.32,21.75,76.4,26.47,115.59,12.31,6.39-2.31,14.75-6.39,25.1-12.22,33.55-18.92,67.11-37.79,100.66-56.58l111.11-62.55c12.26-6.73,21.02-11.98,26.26-15.76,21.91-15.76,37.23-36.36,45.94-61.8,3.96-12.49,5.93-25.23,5.94-38.19.08-110.7.11-177.01.07-198.89Z"/>
</svg>